<svg width="25" height="25" viewBox="0 0 25 25" fill="none" xmlns="http://www.w3.org/2000/svg">
<path fill-rule="evenodd" clip-rule="evenodd" d="M21.1324 5.46134C21.5376 5.46134 21.875 5.7978 21.875 6.22592V6.62175C21.875 7.03945 21.5376 7.38632 21.1324 7.38632H3.8686C3.46235 7.38632 3.125 7.03945 3.125 6.62175V6.22592C3.125 5.7978 3.46235 5.46134 3.8686 5.46134H6.9058C7.52276 5.46134 8.05969 5.02281 8.19848 4.40406L8.35753 3.69365C8.60472 2.72595 9.41822 2.08325 10.3492 2.08325H14.6508C15.5716 2.08325 16.3943 2.72595 16.6323 3.64261L16.8025 4.40302C16.9403 5.02281 17.4772 5.46134 18.0952 5.46134H21.1324ZM19.5894 19.9312C19.9065 16.976 20.4617 9.95526 20.4617 9.88442C20.4819 9.66984 20.412 9.46672 20.2732 9.30318C20.1243 9.15006 19.9359 9.05943 19.7282 9.05943H5.27971C5.07102 9.05943 4.87245 9.15006 4.73468 9.30318C4.59487 9.46672 4.52598 9.66984 4.53611 9.88442C4.53797 9.89744 4.5579 10.1447 4.5912 10.5582C4.73915 12.3949 5.15122 17.5105 5.41749 19.9312C5.60592 21.7145 6.77602 22.8353 8.4709 22.876C9.77878 22.9062 11.1262 22.9166 12.504 22.9166C13.8017 22.9166 15.1197 22.9062 16.4681 22.876C18.2218 22.8458 19.3908 21.7447 19.5894 19.9312Z" fill="#3E5481"/>
</svg>
