<svg width="20" height="20" viewBox="0 0 20 20" fill="none" xmlns="http://www.w3.org/2000/svg">
<path fill-rule="evenodd" clip-rule="evenodd" d="M9.72063 15.5263L4.77784 18.2342C4.38319 18.4393 3.897 18.2941 3.67944 17.9062V17.9062C3.61649 17.786 3.58253 17.6528 3.58028 17.5172V5.51869C3.58028 3.23036 5.14397 2.31503 7.39416 2.31503H12.6802C14.8617 2.31503 16.4941 3.16934 16.4941 5.36614V17.5172C16.4941 17.7336 16.4081 17.9412 16.255 18.0943C16.102 18.2473 15.8944 18.3333 15.6779 18.3333C15.5398 18.3311 15.4041 18.2972 15.2813 18.2342L10.308 15.5263C10.1247 15.4273 9.90389 15.4273 9.72063 15.5263Z" stroke="#200E32" stroke-width="1.5" stroke-linecap="round" stroke-linejoin="round"/>
<path d="M6.97462 7.76887H13.054" stroke="#200E32" stroke-width="1.5" stroke-linecap="round" stroke-linejoin="round"/>
</svg>
