<svg width="20" height="20" viewBox="0 0 20 20" fill="none" xmlns="http://www.w3.org/2000/svg">
<path fill-rule="evenodd" clip-rule="evenodd" d="M6.41268 11.159C5.87538 11.159 5.43887 10.7225 5.43887 10.1852C5.43887 9.64952 5.87538 9.21301 6.41268 9.21301C6.94998 9.21301 7.38649 9.64952 7.38649 10.1852C7.38649 10.7225 6.94998 11.159 6.41268 11.159ZM10.1984 11.159C9.6611 11.159 9.22459 10.7225 9.22459 10.1852C9.22459 9.64952 9.6611 9.21301 10.1984 9.21301C10.7357 9.21301 11.1722 9.64952 11.1722 10.1852C11.1722 10.7225 10.7357 11.159 10.1984 11.159ZM13.0104 10.1852C13.0104 10.7225 13.4469 11.159 13.9842 11.159C14.5215 11.159 14.958 10.7225 14.958 10.1852C14.958 9.64952 14.5215 9.21301 13.9842 9.21301C13.4469 9.21301 13.0104 9.64952 13.0104 10.1852Z" fill="#200E32"/>
<path fill-rule="evenodd" clip-rule="evenodd" d="M10.0167 1.66666C5.17499 1.66666 1.66666 5.62176 1.66666 10.0125C1.66666 11.4146 2.07499 12.8576 2.79166 14.1763C2.92499 14.3941 2.94166 14.6687 2.84999 14.9282L2.29166 16.7977C2.16666 17.2484 2.54999 17.5814 2.97499 17.4478L4.65832 16.9479C5.11666 16.7977 5.47499 16.9888 5.89999 17.2484C7.11666 17.9653 8.63332 18.3333 9.99999 18.3333C14.1333 18.3333 18.3333 15.1369 18.3333 9.98747C18.3333 5.54664 14.75 1.66666 10.0167 1.66666Z" stroke="#200E32" stroke-width="1.5" stroke-linecap="round" stroke-linejoin="round"/>
</svg>
