<svg width="20" height="20" viewBox="0 0 20 20" fill="none" xmlns="http://www.w3.org/2000/svg">
<path d="M15.1389 11.9831C14.5791 11.8627 14.1363 12.1226 13.7442 12.3496C13.3427 12.5834 12.5791 13.2028 12.1415 13.0443C9.90074 12.1217 7.79328 10.1605 6.88099 7.91076C6.7202 7.46376 7.33671 6.69538 7.56886 6.28909C7.79414 5.8958 8.04865 5.44881 7.93257 4.88486C7.82767 4.37809 6.47085 2.6516 5.99106 2.17948C5.67464 1.86762 5.35049 1.6961 5.01773 1.66838C3.76667 1.61467 2.36943 3.28398 2.12438 3.68334C1.51046 4.53489 1.5139 5.66797 2.1347 7.04189C3.63081 10.7322 9.28939 16.3015 12.9936 17.8539C13.6771 18.1735 14.3022 18.3338 14.8637 18.3338C15.4131 18.3338 15.9024 18.1804 16.3229 17.8764C16.6401 17.6936 18.3779 16.227 18.3323 14.9423C18.3048 14.6149 18.1337 14.2874 17.8258 13.9704C17.3572 13.4861 15.6419 12.0888 15.1389 11.9831" fill="white"/>
</svg>
