<svg width="20" height="20" viewBox="0 0 20 20" fill="none" xmlns="http://www.w3.org/2000/svg">
<path fill-rule="evenodd" clip-rule="evenodd" d="M1.66675 10.0125C1.66675 5.62259 5.17508 1.66666 10.0167 1.66666C14.7501 1.66666 18.3334 5.54748 18.3334 9.98747C18.3334 15.1369 14.1334 18.3333 10.0001 18.3333C8.63342 18.3333 7.11675 17.9661 5.90008 17.2484C5.47508 16.9896 5.11675 16.7977 4.65841 16.9479L2.97508 17.4487C2.55008 17.5822 2.16675 17.2484 2.29175 16.7977L2.85008 14.9282C2.94175 14.6695 2.92508 14.3941 2.79175 14.1771C2.07508 12.8584 1.66675 11.4146 1.66675 10.0125ZM8.91675 10.0125C8.91675 10.6051 9.39175 11.0808 9.98341 11.0891C10.5751 11.0891 11.0501 10.6051 11.0501 10.0209C11.0501 9.4283 10.5751 8.95259 9.98341 8.95259C9.40008 8.94424 8.91675 9.4283 8.91675 10.0125ZM12.7584 10.0209C12.7584 10.6051 13.2334 11.0891 13.8251 11.0891C14.4167 11.0891 14.8917 10.6051 14.8917 10.0209C14.8917 9.4283 14.4167 8.95259 13.8251 8.95259C13.2334 8.95259 12.7584 9.4283 12.7584 10.0209ZM6.14175 11.0891C5.55841 11.0891 5.07508 10.6051 5.07508 10.0209C5.07508 9.4283 5.55008 8.95259 6.14175 8.95259C6.73341 8.95259 7.20841 9.4283 7.20841 10.0209C7.20841 10.6051 6.73341 11.0808 6.14175 11.0891Z" fill="white"/>
</svg>
