<svg width="20" height="20" viewBox="0 0 20 20" fill="none" xmlns="http://www.w3.org/2000/svg">
<path fill-rule="evenodd" clip-rule="evenodd" d="M8.24621 9.35832C7.88162 9.35832 7.59335 9.64166 7.59335 9.99999C7.59335 10.35 7.88162 10.6417 8.24621 10.6417H13.3334V14.625C13.3334 16.6667 11.6462 18.3333 9.5604 18.3333H5.43128C3.35401 18.3333 1.66675 16.675 1.66675 14.6333V5.37499C1.66675 3.32499 3.36248 1.66666 5.43976 1.66666H9.57736C11.6462 1.66666 13.3334 3.32499 13.3334 5.36666V9.35832H8.24621ZM16.3586 7.11682L18.7919 9.54182C18.9169 9.66682 18.9836 9.82516 18.9836 10.0002C18.9836 10.1668 18.9169 10.3335 18.7919 10.4502L16.3586 12.8752C16.2336 13.0002 16.0669 13.0668 15.9086 13.0668C15.7419 13.0668 15.5752 13.0002 15.4502 12.8752C15.2002 12.6252 15.2002 12.2168 15.4502 11.9668L16.7836 10.6418H13.3336V9.35849H16.7836L15.4502 8.03349C15.2002 7.78349 15.2002 7.37516 15.4502 7.12516C15.7002 6.86682 16.1086 6.86682 16.3586 7.11682Z" fill="white"/>
</svg>
