<svg width="20" height="20" viewBox="0 0 20 20" fill="none" xmlns="http://www.w3.org/2000/svg">
<path fill-rule="evenodd" clip-rule="evenodd" d="M13.4652 6.86072C13.4652 8.81879 11.9042 10.3888 9.95744 10.3888C8.01069 10.3888 6.4497 8.81879 6.4497 6.86072C6.4497 4.9019 8.01069 3.33334 9.95744 3.33334C11.9042 3.33334 13.4652 4.9019 13.4652 6.86072ZM9.95744 16.6667C7.09812 16.6667 4.65666 16.2134 4.65666 14.4001C4.65666 12.5862 7.08245 12.1164 9.95744 12.1164C12.8168 12.1164 15.2582 12.5697 15.2582 14.3836C15.2582 16.1969 12.8324 16.6667 9.95744 16.6667ZM14.9642 6.92436C14.9642 7.92254 14.6664 8.85241 14.1441 9.62543C14.0904 9.70499 14.1382 9.81231 14.2329 9.82882C14.3635 9.85134 14.4986 9.86409 14.6358 9.86785C16.0051 9.90387 17.234 9.01752 17.5735 7.68312C18.0764 5.70104 16.5998 3.92159 14.7194 3.92159C14.515 3.92159 14.3195 3.94335 14.1292 3.98238C14.1031 3.98838 14.0755 4.00039 14.0606 4.02366C14.0426 4.05218 14.0561 4.09045 14.074 4.11522C14.6388 4.91151 14.9642 5.88266 14.9642 6.92436ZM17.2318 11.2605C18.1518 11.4414 18.7569 11.8106 19.0077 12.3472C19.2196 12.7878 19.2196 13.2989 19.0077 13.7387C18.6241 14.571 17.3877 14.8381 16.9072 14.9072C16.8079 14.9222 16.7281 14.8359 16.7386 14.7361C16.984 12.4298 15.0313 11.3363 14.5262 11.0849C14.5045 11.0736 14.5 11.0563 14.5023 11.0458C14.5038 11.0383 14.5127 11.0263 14.5291 11.0241C15.6223 11.0038 16.7975 11.1539 17.2318 11.2605ZM5.36418 9.86777C5.50147 9.86402 5.63578 9.85201 5.76711 9.82874C5.86187 9.81223 5.90963 9.70491 5.8559 9.62536C5.33358 8.85234 5.03586 7.92246 5.03586 6.92429C5.03586 5.88259 5.36119 4.91143 5.92604 4.11515C5.94395 4.09038 5.95663 4.0521 5.93947 4.02358C5.92455 4.00107 5.89619 3.98831 5.87082 3.98231C5.67981 3.94328 5.48431 3.92151 5.27986 3.92151C3.39951 3.92151 1.92285 5.70096 2.42651 7.68305C2.76602 9.01745 3.99496 9.9038 5.36418 9.86777ZM5.49737 11.0454C5.49961 11.0566 5.49513 11.0732 5.47424 11.0852C4.96833 11.3366 3.01561 12.4301 3.2611 14.7356C3.27155 14.8362 3.19245 14.9218 3.09321 14.9075C2.61268 14.8384 1.37628 14.5713 0.992746 13.739C0.780087 13.2984 0.780087 12.7881 0.992746 12.3475C1.24346 11.8109 1.84786 11.4417 2.76788 11.26C3.2029 11.1542 4.37737 11.0041 5.47125 11.0244C5.48767 11.0266 5.49588 11.0386 5.49737 11.0454Z" fill="white"/>
</svg>
