<svg width="21" height="21" viewBox="0 0 21 21" fill="none" xmlns="http://www.w3.org/2000/svg">
<path d="M7.51572 19.6389V16.4538C7.51572 15.6407 8.17968 14.9816 8.9987 14.9816H11.9926C12.3859 14.9816 12.7631 15.1367 13.0412 15.4128C13.3194 15.6889 13.4756 16.0634 13.4756 16.4538V19.6389C13.4731 19.977 13.6066 20.302 13.8465 20.5419C14.0864 20.7818 14.4129 20.9167 14.7534 20.9167H16.796C17.7499 20.9192 18.6657 20.5447 19.3411 19.8759C20.0166 19.2071 20.3962 18.299 20.3962 17.3519V8.27802C20.3961 7.51302 20.0546 6.78738 19.4635 6.29657L12.5149 0.787404C11.3062 -0.178541 9.57441 -0.147353 8.40178 0.861477L1.6118 6.29657C0.992763 6.77291 0.622776 7.5007 0.604492 8.27802V17.3427C0.604492 19.3166 2.21635 20.9167 4.20468 20.9167H6.20062C6.90785 20.9167 7.48262 20.3503 7.48774 19.6482L7.51572 19.6389Z" fill="#9FA5C0"/>
</svg>
