<svg width="25" height="25" viewBox="0 0 25 25" fill="none" xmlns="http://www.w3.org/2000/svg">
<path fill-rule="evenodd" clip-rule="evenodd" d="M19.4862 9.16284C19.4862 10.4711 19.832 11.2422 20.5929 12.1308C21.1696 12.7855 21.3538 13.6258 21.3538 14.5375C21.3538 15.4482 21.0546 16.3126 20.4552 17.0145C19.6705 17.8559 18.5638 18.3931 17.4343 18.4864C15.7975 18.626 14.1597 18.7435 12.5002 18.7435C10.8396 18.7435 9.20285 18.6732 7.56608 18.4864C6.43557 18.3931 5.32886 17.8559 4.54516 17.0145C3.94574 16.3126 3.64551 15.4482 3.64551 14.5375C3.64551 13.6258 3.83082 12.7855 4.40643 12.1308C5.19117 11.2422 5.51417 10.4711 5.51417 9.16284V8.71906C5.51417 6.96702 5.95106 5.82137 6.85071 4.69986C8.18828 3.06427 10.3323 2.08333 12.4536 2.08333H12.5468C14.7136 2.08333 16.927 3.11148 18.2418 4.81736C19.0949 5.91579 19.4862 7.01318 19.4862 8.71906V9.16284ZM9.45142 20.8967C9.45142 20.3721 9.93282 20.1319 10.378 20.0291C10.8987 19.9189 14.0718 19.9189 14.5926 20.0291C15.0377 20.1319 15.5191 20.3721 15.5191 20.8967C15.4933 21.3961 15.2003 21.8388 14.7955 22.12C14.2706 22.5291 13.6546 22.7883 13.0107 22.8817C12.6546 22.9278 12.3046 22.9289 11.9609 22.8817C11.3159 22.7883 10.7 22.5291 10.1761 22.1189C9.77028 21.8388 9.4773 21.3961 9.45142 20.8967Z" fill="#9FA5C0"/>
</svg>
