<svg width="25" height="25" viewBox="0 0 25 25" fill="none" xmlns="http://www.w3.org/2000/svg">
<path fill-rule="evenodd" clip-rule="evenodd" d="M21.2528 14.1459C21.6254 14.3439 21.9128 14.6564 22.115 14.9689C22.5089 15.6147 22.477 16.4064 22.0938 17.1043L21.3486 18.3543C20.9547 19.0209 20.2202 19.4376 19.4643 19.4376C19.0918 19.4376 18.6766 19.3334 18.3359 19.1251C18.0592 18.948 17.7398 18.8855 17.3991 18.8855C16.3452 18.8855 15.4617 19.7501 15.4297 20.7814C15.4297 21.9793 14.4504 22.9168 13.2261 22.9168H11.7784C10.5435 22.9168 9.56413 21.9793 9.56413 20.7814C9.54284 19.7501 8.65927 18.8855 7.60538 18.8855C7.25408 18.8855 6.93472 18.948 6.66859 19.1251C6.32793 19.3334 5.90212 19.4376 5.54017 19.4376C4.77371 19.4376 4.03917 19.0209 3.64529 18.3543L2.91076 17.1043C2.51688 16.4272 2.49559 15.6147 2.88947 14.9689C3.0598 14.6564 3.37916 14.3439 3.7411 14.1459C4.03917 14.0001 4.23079 13.7605 4.41176 13.4793C4.94403 12.5834 4.62467 11.4064 3.71981 10.8751C2.66592 10.2814 2.32527 8.95844 2.93205 7.92719L3.64529 6.69802C4.26273 5.66677 5.58276 5.30219 6.64729 5.90636C7.57344 6.40636 8.77637 6.07302 9.31929 5.18761C9.48961 4.89594 9.58542 4.58344 9.56413 4.27094C9.54284 3.86469 9.65994 3.47927 9.8622 3.16677C10.2561 2.52094 10.9693 2.10427 11.7464 2.08344H13.2474C14.0352 2.08344 14.7484 2.52094 15.1423 3.16677C15.3339 3.47927 15.4617 3.86469 15.4297 4.27094C15.4084 4.58344 15.5043 4.89594 15.6746 5.18761C16.2175 6.07302 17.4204 6.40636 18.3572 5.90636C19.4111 5.30219 20.7418 5.66677 21.3486 6.69802L22.0618 7.92719C22.6793 8.95844 22.3386 10.2814 21.2741 10.8751C20.3692 11.4064 20.0498 12.5834 20.5928 13.4793C20.7631 13.7605 20.9547 14.0001 21.2528 14.1459ZM9.48961 12.5105C9.48961 14.1459 10.8416 15.448 12.5129 15.448C14.1842 15.448 15.5043 14.1459 15.5043 12.5105C15.5043 10.8751 14.1842 9.5626 12.5129 9.5626C10.8416 9.5626 9.48961 10.8751 9.48961 12.5105Z" fill="#9FA5C0"/>
</svg>
