<svg width="22" height="22" viewBox="0 0 22 22" fill="none" xmlns="http://www.w3.org/2000/svg">
<path d="M21.836 10.917C21.8362 13.0763 21.1961 15.1872 19.9966 16.9828C18.7971 18.7783 17.0922 20.1779 15.0973 21.0044C13.1024 21.831 10.9073 22.0475 8.78936 21.6265C6.67146 21.2055 4.72596 20.1659 3.19887 18.6393C1.67178 17.1126 0.631689 15.1674 0.210108 13.0496C-0.211472 10.9318 0.00439709 8.73658 0.830419 6.74148C1.65644 4.74638 3.05552 3.04103 4.85073 1.84106C6.64594 0.641087 8.75667 0.000395976 10.916 4.12239e-07C12.3499 -0.000393623 13.7698 0.281692 15.0947 0.830146C16.4195 1.3786 17.6234 2.18268 18.6374 3.19645C19.6515 4.21023 20.4559 5.41385 21.0047 6.73855C21.5535 8.06326 21.836 9.48311 21.836 10.917ZM9.656 16.698L17.756 8.598C17.8225 8.53282 17.8754 8.45503 17.9114 8.36917C17.9475 8.28332 17.9661 8.19113 17.9661 8.098C17.9661 8.00487 17.9475 7.91268 17.9114 7.82683C17.8754 7.74097 17.8225 7.66318 17.756 7.598L16.756 6.598C16.6908 6.53148 16.613 6.47863 16.5272 6.44256C16.4413 6.40648 16.3491 6.3879 16.256 6.3879C16.1629 6.3879 16.0707 6.40648 15.9848 6.44256C15.899 6.47863 15.8212 6.53148 15.756 6.598L9.155 13.211L6.07101 10.127C6.00583 10.0605 5.92804 10.0076 5.84218 9.97156C5.75632 9.93548 5.66413 9.9169 5.57101 9.9169C5.47788 9.9169 5.38569 9.93548 5.29983 9.97156C5.21397 10.0076 5.13618 10.0605 5.07101 10.127L4.07101 11.127C4.00449 11.1922 3.95164 11.27 3.91556 11.3558C3.87949 11.4417 3.8609 11.5339 3.8609 11.627C3.8609 11.7201 3.87949 11.8123 3.91556 11.8982C3.95164 11.984 4.00449 12.0618 4.07101 12.127L8.649 16.705C8.71471 16.7717 8.79312 16.8245 8.8796 16.8603C8.96608 16.8962 9.05887 16.9143 9.15248 16.9137C9.24609 16.913 9.33862 16.8936 9.42459 16.8565C9.51057 16.8195 9.58823 16.7656 9.653 16.698H9.656Z" fill="#1FCC79"/>
</svg>
