<svg width="26" height="24" viewBox="0 0 26 24" fill="none" xmlns="http://www.w3.org/2000/svg">
<path fill-rule="evenodd" clip-rule="evenodd" d="M7.47088 3C6.05197 3 4.68701 3.53 3.68287 4.481C2.67767 5.43 2.11582 6.71 2.11582 8.05V15.95C2.11582 18.74 4.51772 21 7.47088 21H17.9239C20.8771 21 23.2779 18.74 23.2779 15.95V8.05C23.2779 5.26 20.8876 3 17.9239 3H7.47088ZM5.78744 9.54L5.70279 9.46C5.44991 9.17 5.44991 8.75 5.71443 8.46C5.86151 8.311 6.06361 8.22 6.27417 8.2C6.49637 8.189 6.70799 8.26 6.86777 8.4L11.6388 12C12.2525 12.481 13.1317 12.481 13.755 12L18.5164 8.4C18.8455 8.17 19.3005 8.2 19.5745 8.47C19.8602 8.74 19.892 9.17 19.6497 9.47L19.5111 9.6L14.6967 13.15C14.1041 13.59 13.3857 13.83 12.6334 13.83C11.8832 13.83 11.152 13.59 10.5605 13.15L5.78744 9.54Z" fill="#3B4A66"/>
</svg>
