<svg width="22" height="20" viewBox="0 0 22 20" fill="none" xmlns="http://www.w3.org/2000/svg">
<path fill-rule="evenodd" clip-rule="evenodd" d="M6.59878 0.500709C5.93305 0.500709 5.26837 0.589709 4.63639 0.790709C0.74222 1.99071 -0.66099 6.04071 0.511166 9.58071C1.17584 11.3897 2.26254 13.0407 3.6858 14.3897C5.72309 16.2597 7.95873 17.9197 10.3653 19.3497L10.6291 19.5007L10.9034 19.3397C13.3184 17.9197 15.5667 16.2597 17.623 14.3797C19.0367 13.0307 20.1245 11.3897 20.7997 9.58071C21.9919 6.04071 20.5887 1.99071 16.6523 0.769709C16.3463 0.669709 16.0309 0.599709 15.7144 0.560709H15.5878C15.2913 0.519709 14.9969 0.500709 14.7015 0.500709H14.5855C13.9208 0.519709 13.2772 0.629709 12.6537 0.830709H12.5914C12.5492 0.849709 12.5176 0.870709 12.4965 0.889709C12.2633 0.960709 12.0428 1.04071 11.8318 1.15071L11.4309 1.32071C11.334 1.36968 11.2253 1.44451 11.1313 1.50918C11.0718 1.55015 11.0181 1.58705 10.9772 1.61071C10.96 1.62034 10.9425 1.63002 10.9249 1.63978C10.8344 1.68983 10.7402 1.74197 10.6607 1.79971C9.48855 0.950709 8.06529 0.490709 6.59878 0.500709ZM3.79236 7.70071C3.35979 7.68971 2.99052 7.36071 2.95887 6.93971V6.82071C2.92722 5.41971 3.82295 4.15071 5.18502 3.66071C5.61759 3.51971 6.09236 3.74071 6.25061 4.16071C6.39832 4.58071 6.16621 5.04071 5.72309 5.18971C5.04681 5.42971 4.59419 6.06071 4.59419 6.75971V6.79071C4.61424 7.01971 4.54144 7.24071 4.39373 7.41071C4.24603 7.58071 4.02447 7.67971 3.79236 7.70071Z" fill="#3B4A66"/>
</svg>
