<svg width="26" height="24" viewBox="0 0 26 24" fill="none" xmlns="http://www.w3.org/2000/svg">
<path fill-rule="evenodd" clip-rule="evenodd" d="M7.1916 7.39601V8.92935C5.37444 9.46696 4.05042 11.0261 4.05042 12.8884V17.8253C4.05042 20.1308 6.06699 22 8.55313 22H17.4824C19.9696 22 21.9862 20.1308 21.9862 17.8253V12.8884C21.9862 11.0261 20.6611 9.46696 18.845 8.92935V7.39601C18.8343 4.41479 16.2292 2 13.0344 2C9.79674 2 7.1916 4.41479 7.1916 7.39601ZM13.013 3.73904C10.8366 3.73904 9.06773 5.37871 9.06773 7.39601V8.7137H16.9689V7.37613C16.9582 5.36878 15.1893 3.73904 13.013 3.73904ZM12.0803 16.4549C12.0803 16.9419 12.4984 17.3294 13.0237 17.3294C13.5383 17.3294 13.9564 16.9419 13.9564 16.4549V14.2488C13.9564 13.7718 13.5383 13.3843 13.0237 13.3843C12.4984 13.3843 12.0803 13.7718 12.0803 14.2488V16.4549Z" fill="#3B4A66"/>
</svg>
