<svg width="19" height="20" viewBox="0 0 19 20" fill="none" xmlns="http://www.w3.org/2000/svg">
<path fill-rule="evenodd" clip-rule="evenodd" d="M12.9039 14.39H7.22133C6.79304 14.39 6.43788 14.05 6.43788 13.64C6.43788 13.23 6.79304 12.9 7.22133 12.9H12.9039C13.3322 12.9 13.6874 13.23 13.6874 13.64C13.6874 14.05 13.3322 14.39 12.9039 14.39ZM9.3732 7.9H12.9039C13.3322 7.9 13.6874 8.24 13.6874 8.65C13.6874 9.06 13.3322 9.39 12.9039 9.39H9.3732C8.94492 9.39 8.58975 9.06 8.58975 8.65C8.58975 8.24 8.94492 7.9 9.3732 7.9ZM1.91847 7.02561C1.67293 7.02292 1.40557 7.02 1.16265 7.02C0.901497 7.02 0.692575 7.22 0.692575 7.47V15.51C0.692575 17.99 2.79222 20 5.38283 20H13.6978C16.4138 20 18.6284 17.89 18.6284 15.29V4.51C18.6284 2.03 16.5183 0 13.9172 0H8.33905C8.06745 0 7.85853 0.21 7.85853 0.46V3.68C7.85853 5.51 6.28119 7.01 4.36957 7.02C3.92305 7.02 3.52941 7.02316 3.18492 7.02593C2.91691 7.02809 2.67865 7.03 2.4684 7.03C2.3197 7.03 2.12695 7.02789 1.91847 7.02561ZM1.63042 5.566C2.48908 5.569 3.5013 5.566 4.22938 5.559C5.38471 5.559 6.33634 4.648 6.33634 3.542V0.906C6.33634 0.475 5.79002 0.261 5.47768 0.572C4.91254 1.13453 4.136 1.9077 3.36293 2.67742C2.59131 3.44569 1.82315 4.21052 1.27212 4.759C0.967094 5.062 1.19064 5.565 1.63042 5.566Z" fill="#3B4A66"/>
</svg>
