<svg width="24" height="24" viewBox="0 0 24 24" fill="none" xmlns="http://www.w3.org/2000/svg">
<path d="M5.00021 10.17C4.9997 10.3194 5.03268 10.467 5.09671 10.602C5.16073 10.737 5.25419 10.8559 5.37021 10.95L11.3702 15.78C11.5491 15.9271 11.7736 16.0075 12.0052 16.0075C12.2368 16.0075 12.4613 15.9271 12.6402 15.78L18.6402 10.78C18.8444 10.6103 18.9729 10.3663 18.9972 10.1019C19.0216 9.83749 18.94 9.57421 18.7702 9.36999C18.6005 9.16577 18.3566 9.03735 18.0921 9.01297C17.8277 8.98859 17.5644 9.07025 17.3602 9.23999L12.0002 13.71L6.64021 9.38999C6.49343 9.26771 6.31469 9.19003 6.12514 9.16615C5.93559 9.14227 5.74317 9.17319 5.57064 9.25524C5.39811 9.3373 5.2527 9.46706 5.15161 9.62917C5.05052 9.79128 4.99798 9.97896 5.00021 10.17Z" fill="#2E3E5C"/>
</svg>
