<svg width="24" height="24" viewBox="0 0 24 24" fill="none" xmlns="http://www.w3.org/2000/svg">
<path d="M13.8302 19C13.6808 19.0005 13.5332 18.9675 13.3982 18.9035C13.2632 18.8395 13.1443 18.746 13.0502 18.63L8.22016 12.63C8.07308 12.4511 7.99268 12.2266 7.99268 11.995C7.99268 11.7634 8.07308 11.5389 8.22016 11.36L13.2202 5.36C13.3899 5.15578 13.6338 5.02736 13.8982 5.00298C14.1627 4.9786 14.4259 5.06026 14.6302 5.23C14.8344 5.39974 14.9628 5.64365 14.9872 5.90808C15.0116 6.1725 14.9299 6.43578 14.7602 6.64L10.2902 12L14.6102 17.36C14.7324 17.5068 14.8101 17.6855 14.834 17.8751C14.8579 18.0646 14.827 18.257 14.7449 18.4296C14.6629 18.6021 14.5331 18.7475 14.371 18.8486C14.2089 18.9497 14.0212 19.0022 13.8302 19Z" fill="#2E3E5C"/>
</svg>
