<svg width="25" height="32" viewBox="0 0 25 32" fill="none" xmlns="http://www.w3.org/2000/svg">
<path d="M12.5 29C13.8807 29 15 27.8807 15 26.5C15 25.1193 13.8807 24 12.5 24C11.1193 24 10 25.1193 10 26.5C10 27.8807 11.1193 29 12.5 29Z" fill="#1FCC79"/>
<path d="M9.51572 21.6389V18.4538C9.51572 17.6407 10.1797 16.9816 10.9987 16.9816H13.9926C14.3859 16.9816 14.7631 17.1367 15.0413 17.4128C15.3194 17.6889 15.4756 18.0633 15.4756 18.4538V21.6389C15.4731 21.9769 15.6066 22.302 15.8465 22.5419C16.0864 22.7817 16.4129 22.9167 16.7534 22.9167H18.796C19.7499 22.9191 20.6657 22.5446 21.3411 21.8758C22.0166 21.2071 22.3962 20.2989 22.3962 19.3519V10.278C22.3961 9.51298 22.0546 8.78733 21.4635 8.29653L14.5149 2.78736C13.3062 1.82142 11.5744 1.85261 10.4018 2.86144L3.6118 8.29653C2.99276 8.77287 2.62278 9.50066 2.60449 10.278V19.3426C2.60449 21.3165 4.21635 22.9167 6.20467 22.9167H8.20063C8.90785 22.9167 9.48261 22.3502 9.48774 21.6482L9.51572 21.6389Z" fill="#1FCC79"/>
</svg>
