<svg width="25" height="33" viewBox="0 0 25 33" fill="none" xmlns="http://www.w3.org/2000/svg">
<path d="M12.5 30C13.8807 30 15 28.8807 15 27.5C15 26.1193 13.8807 25 12.5 25C11.1193 25 10 26.1193 10 27.5C10 28.8807 11.1193 30 12.5 30Z" fill="#1FCC79"/>
<path fill-rule="evenodd" clip-rule="evenodd" d="M19.4866 9.16288C19.4866 10.4711 19.8324 11.2423 20.5933 12.1309C21.1699 12.7855 21.3542 13.6259 21.3542 14.5376C21.3542 15.4482 21.055 16.3127 20.4556 17.0146C19.6709 17.856 18.5641 18.3931 17.4347 18.4865C15.7979 18.626 14.1601 18.7435 12.5006 18.7435C10.84 18.7435 9.20322 18.6732 7.56645 18.4865C6.43593 18.3931 5.32923 17.856 4.54553 17.0146C3.9461 16.3127 3.64587 15.4482 3.64587 14.5376C3.64587 13.6259 3.83119 12.7855 4.4068 12.1309C5.19154 11.2423 5.51454 10.4711 5.51454 9.16288V8.7191C5.51454 6.96706 5.95143 5.82141 6.85108 4.6999C8.18865 3.06431 10.3327 2.08337 12.454 2.08337H12.5471C14.714 2.08337 16.9274 3.11152 18.2422 4.8174C19.0952 5.91584 19.4866 7.01322 19.4866 8.7191V9.16288ZM9.45179 20.8967C9.45179 20.3722 9.93319 20.1319 10.3784 20.0291C10.8991 19.919 14.0722 19.919 14.5929 20.0291C15.0381 20.1319 15.5195 20.3722 15.5195 20.8967C15.4936 21.3961 15.2007 21.8389 14.7959 22.12C14.271 22.5292 13.655 22.7883 13.0111 22.8817C12.6549 22.9279 12.305 22.9289 11.9613 22.8817C11.3163 22.7883 10.7003 22.5292 10.1765 22.119C9.77065 21.8389 9.47767 21.3961 9.45179 20.8967Z" fill="#1FCC79"/>
</svg>
