<svg width="25" height="33" viewBox="0 0 25 33" fill="none" xmlns="http://www.w3.org/2000/svg">
<path d="M12.5 30C13.8807 30 15 28.8807 15 27.5C15 26.1193 13.8807 25 12.5 25C11.1193 25 10 26.1193 10 27.5C10 28.8807 11.1193 30 12.5 30Z" fill="#1FCC79"/>
<path d="M12.5 30C13.8807 30 15 28.8807 15 27.5C15 26.1193 13.8807 25 12.5 25C11.1193 25 10 26.1193 10 27.5C10 28.8807 11.1193 30 12.5 30Z" fill="#1FCC79"/>
<path fill-rule="evenodd" clip-rule="evenodd" d="M18.0149 7.59484C18.0149 10.6542 15.5619 13.1074 12.5003 13.1074C9.4398 13.1074 6.98576 10.6542 6.98576 7.59484C6.98576 4.53544 9.4398 2.08333 12.5003 2.08333C15.5619 2.08333 18.0149 4.53544 18.0149 7.59484ZM12.5003 22.9167C7.98196 22.9167 4.16699 22.1823 4.16699 19.3489C4.16699 16.5145 8.00593 15.8062 12.5003 15.8062C17.0197 15.8062 20.8337 16.5406 20.8337 19.3739C20.8337 22.2083 16.9947 22.9167 12.5003 22.9167Z" fill="#1FCC79"/>
</svg>
