<svg width="25" height="33" viewBox="0 0 25 33" fill="none" xmlns="http://www.w3.org/2000/svg">
<path d="M12.5 30C13.8807 30 15 28.8807 15 27.5C15 26.1193 13.8807 25 12.5 25C11.1193 25 10 26.1193 10 27.5C10 28.8807 11.1193 30 12.5 30Z" fill="#1FCC79"/>
<path fill-rule="evenodd" clip-rule="evenodd" d="M21.2523 14.146C21.6249 14.3439 21.9123 14.6564 22.1146 14.9689C22.5084 15.6147 22.4765 16.4064 22.0933 17.1043L21.3481 18.3543C20.9542 19.021 20.2197 19.4377 19.4639 19.4377C19.0913 19.4377 18.6761 19.3335 18.3354 19.1252C18.0587 18.9481 17.7393 18.8856 17.3986 18.8856C16.3448 18.8856 15.4612 19.7502 15.4293 20.7814C15.4293 21.9793 14.4499 22.9168 13.2257 22.9168H11.7779C10.543 22.9168 9.56364 21.9793 9.56364 20.7814C9.54235 19.7502 8.65878 18.8856 7.60489 18.8856C7.25359 18.8856 6.93423 18.9481 6.6681 19.1252C6.32744 19.3335 5.90163 19.4377 5.53969 19.4377C4.77322 19.4377 4.03869 19.021 3.64481 18.3543L2.91027 17.1043C2.5164 16.4272 2.4951 15.6147 2.88898 14.9689C3.05931 14.6564 3.37867 14.3439 3.74061 14.146C4.03869 14.0002 4.2303 13.7606 4.41127 13.4793C4.94354 12.5835 4.62418 11.4064 3.71932 10.8752C2.66543 10.2814 2.32478 8.9585 2.93157 7.92725L3.64481 6.69808C4.26224 5.66683 5.58227 5.30225 6.64681 5.90641C7.57295 6.40641 8.77588 6.07308 9.3188 5.18766C9.48912 4.896 9.58493 4.5835 9.56364 4.271C9.54235 3.86475 9.65945 3.47933 9.86171 3.16683C10.2556 2.521 10.9688 2.10433 11.7459 2.0835H13.2469C14.0347 2.0835 14.7479 2.521 15.1418 3.16683C15.3334 3.47933 15.4612 3.86475 15.4293 4.271C15.408 4.5835 15.5038 4.896 15.6741 5.18766C16.217 6.07308 17.4199 6.40641 18.3567 5.90641C19.4106 5.30225 20.7413 5.66683 21.3481 6.69808L22.0613 7.92725C22.6788 8.9585 22.3381 10.2814 21.2736 10.8752C20.3687 11.4064 20.0494 12.5835 20.5923 13.4793C20.7626 13.7606 20.9542 14.0002 21.2523 14.146ZM9.48913 12.5106C9.48913 14.146 10.8411 15.4481 12.5124 15.4481C14.1837 15.4481 15.5038 14.146 15.5038 12.5106C15.5038 10.8752 14.1837 9.56266 12.5124 9.56266C10.8411 9.56266 9.48913 10.8752 9.48913 12.5106Z" fill="#1FCC79"/>
</svg>
