<svg width="25" height="25" viewBox="0 0 25 25" fill="none" xmlns="http://www.w3.org/2000/svg">
<path fill-rule="evenodd" clip-rule="evenodd" d="M14.9542 2.0916C14.7218 2.05829 14.4884 2.127 14.3027 2.27481C14.1118 2.42471 13.9925 2.64123 13.9666 2.88377C13.9116 3.37406 14.2653 3.8175 14.755 3.87267C18.1317 4.2495 20.7563 6.87998 21.136 10.2672C21.1869 10.7211 21.5676 11.0636 22.022 11.0636C22.0562 11.0636 22.0894 11.0615 22.1236 11.0573C22.3612 11.0313 22.5728 10.9137 22.7222 10.7263C22.8706 10.5389 22.938 10.3058 22.911 10.0674C22.438 5.84111 19.167 2.56107 14.9542 2.0916ZM15.019 5.7187C14.5231 5.62709 14.0677 5.94354 13.9733 6.42758C13.8789 6.91163 14.1964 7.38422 14.6787 7.47895C16.1311 7.76208 17.2525 8.88631 17.5368 10.3436V10.3447C17.6177 10.7642 17.987 11.0692 18.4123 11.0692C18.4694 11.0692 18.5264 11.064 18.5845 11.0536C19.0669 10.9568 19.3844 10.4852 19.29 10.0001C18.8657 7.8235 17.1903 6.14236 15.019 5.7187ZM16.6669 15.7193C17.1372 15.4482 17.6683 15.1419 18.3384 15.2844C18.9452 15.4125 21.0138 17.0915 21.5802 17.6734C21.9516 18.0544 22.1581 18.4479 22.1902 18.8413C22.2462 20.3851 20.1486 22.1474 19.7669 22.3671C19.2596 22.7324 18.6693 22.9167 18.0064 22.9167C17.329 22.9167 16.5738 22.7241 15.7501 22.34C11.281 20.4746 4.45384 13.7823 2.64877 9.34787C1.89977 7.69692 1.89458 6.33536 2.63632 5.3121C2.93198 4.83222 4.61775 2.82631 6.12716 2.88981C6.52864 2.92416 6.9187 3.13027 7.3015 3.50501C7.88036 4.07233 9.51738 6.14694 9.64394 6.7559C9.78399 7.43252 9.47692 7.97069 9.20408 8.44328C9.14589 8.54488 9.06748 8.66544 8.98159 8.79752C8.65558 9.2988 8.22166 9.966 8.3752 10.3919C9.47588 13.0943 12.0185 15.452 14.722 16.5596C15.1401 16.7115 15.8069 16.2745 16.3066 15.9471C16.4368 15.8617 16.5556 15.7839 16.6557 15.7258L16.6669 15.7193Z" fill="#3E5481"/>
</svg>
