<svg width="21" height="19" viewBox="0 0 21 19" fill="none" xmlns="http://www.w3.org/2000/svg">
<path fill-rule="evenodd" clip-rule="evenodd" d="M16.0833 3.37125C16.125 3.44409 16.1979 3.49612 16.2917 3.49612C18.7917 3.49612 20.8333 5.53552 20.8333 8.03274V14.2134C20.8333 16.7106 18.7917 18.75 16.2917 18.75H4.54167C2.03125 18.75 0 16.7106 0 14.2134V8.03274C0 5.53552 2.03125 3.49612 4.54167 3.49612C4.625 3.49612 4.70833 3.45449 4.73958 3.37125L4.80208 3.24639C4.83799 3.17082 4.87484 3.0932 4.91225 3.0144C5.17874 2.45309 5.47356 1.83209 5.65625 1.46712C6.13542 0.53066 6.94792 0.0104051 7.95833 0H12.8646C13.875 0.0104051 14.6979 0.53066 15.1771 1.46712C15.3411 1.79488 15.5911 2.32284 15.832 2.83171C15.8817 2.93671 15.9311 3.04089 15.9792 3.14234L16.0833 3.37125ZM15.3229 7.36682C15.3229 7.88707 15.7396 8.30328 16.2604 8.30328C16.7812 8.30328 17.2083 7.88707 17.2083 7.36682C17.2083 6.84656 16.7812 6.41995 16.2604 6.41995C15.7396 6.41995 15.3229 6.84656 15.3229 7.36682ZM8.61458 8.97961C9.10417 8.49057 9.73958 8.23044 10.4167 8.23044C11.0938 8.23044 11.7292 8.49057 12.2083 8.9692C12.6875 9.44784 12.9479 10.0825 12.9479 10.7589C12.9375 12.1532 11.8125 13.2873 10.4167 13.2873C9.73958 13.2873 9.10417 13.0272 8.625 12.5486C8.14583 12.0699 7.88542 11.4352 7.88542 10.7589V10.7485C7.875 10.093 8.13542 9.45824 8.61458 8.97961ZM13.3021 13.6515C12.5625 14.3903 11.5417 14.8481 10.4167 14.8481C9.32292 14.8481 8.30208 14.4215 7.52083 13.6515C6.75 12.8711 6.32292 11.8514 6.32292 10.7589C6.3125 9.67675 6.73958 8.65705 7.51042 7.87667C8.29167 7.09628 9.32292 6.66967 10.4167 6.66967C11.5104 6.66967 12.5417 7.09628 13.3125 7.86626C14.0833 8.64664 14.5104 9.67675 14.5104 10.7589C14.5 11.893 14.0417 12.9127 13.3021 13.6515Z" fill="#3E5481"/>
</svg>
