<svg width="25" height="25" viewBox="0 0 25 25" fill="none" xmlns="http://www.w3.org/2000/svg">
<path fill-rule="evenodd" clip-rule="evenodd" d="M3.646 10.7477C3.646 5.95615 7.65004 2.08334 12.4933 2.08334C17.3503 2.08334 21.3543 5.95615 21.3543 10.7477C21.3543 13.1622 20.4762 15.4038 19.0309 17.3037C17.4364 19.3995 15.4712 21.2255 13.2591 22.6588C12.7528 22.99 12.2959 23.015 11.7402 22.6588C9.51551 21.2255 7.55025 19.3995 5.96943 17.3037C4.52306 15.4038 3.646 13.1622 3.646 10.7477ZM9.57749 11.0175C9.57749 12.6226 10.8873 13.8851 12.4933 13.8851C14.1004 13.8851 15.4228 12.6226 15.4228 11.0175C15.4228 9.4248 14.1004 8.10088 12.4933 8.10088C10.8873 8.10088 9.57749 9.4248 9.57749 11.0175Z" fill="#3E5481"/>
</svg>
