<svg width="22" height="19" viewBox="0 0 22 19" fill="none" xmlns="http://www.w3.org/2000/svg">
<path fill-rule="evenodd" clip-rule="evenodd" d="M5.5671 0C4.092 0 2.673 0.550985 1.6291 1.53964C0.584101 2.52622 0 3.8569 0 5.24996V13.4628C0 16.3632 2.497 18.7127 5.5671 18.7127H16.434C19.5041 18.7127 22 16.3632 22 13.4628V5.24996C22 2.34949 19.5151 0 16.434 0H5.5671ZM3.8169 6.79899L3.7289 6.71582C3.466 6.41434 3.466 5.97771 3.741 5.67622C3.8939 5.52132 4.104 5.42672 4.3229 5.40593C4.5539 5.39449 4.7739 5.46831 4.94 5.61385L9.8999 9.35639C10.5379 9.85644 11.452 9.85644 12.0999 9.35639L17.0499 5.61385C17.392 5.37474 17.865 5.40593 18.1499 5.68662C18.4469 5.96731 18.4799 6.41434 18.228 6.72622L18.0839 6.86136L13.0789 10.5519C12.4629 11.0093 11.716 11.2589 10.9339 11.2589C10.154 11.2589 9.3939 11.0093 8.779 10.5519L3.8169 6.79899Z" fill="#3E5481"/>
</svg>
