<svg width="25" height="25" viewBox="0 0 25 25" fill="none" xmlns="http://www.w3.org/2000/svg">
<path d="M22.3287 2.68958C21.8076 2.1548 21.0365 1.95557 20.3174 2.16529L3.55016 7.04118C2.79152 7.25195 2.2538 7.85698 2.10894 8.62559C1.96097 9.40783 2.47785 10.4008 3.15312 10.8161L8.39589 14.0384C8.93361 14.3687 9.62765 14.2858 10.0726 13.837L16.0761 7.79616C16.3783 7.48158 16.8785 7.48158 17.1807 7.79616C17.4829 8.10025 17.4829 8.59308 17.1807 8.90765L11.1668 14.9496C10.7208 15.3973 10.6374 16.0946 10.9657 16.6357L14.1691 21.931C14.5442 22.5602 15.1903 22.9167 15.899 22.9167C15.9823 22.9167 16.0761 22.9167 16.1595 22.9062C16.9723 22.8013 17.6184 22.2456 17.8581 21.4592L22.8289 4.71333C23.0477 4.0003 22.8497 3.22435 22.3287 2.68958" fill="#3E5481"/>
</svg>
