<svg width="50" height="50" viewBox="0 0 50 50" fill="none" xmlns="http://www.w3.org/2000/svg">
<path fill-rule="evenodd" clip-rule="evenodd" d="M36.3333 12.9925C36.4166 13.1382 36.5625 13.2422 36.75 13.2422C41.75 13.2422 45.8333 17.321 45.8333 22.3155V34.6767C45.8333 39.6712 41.75 43.75 36.75 43.75H13.25C8.22913 43.75 4.16663 39.6712 4.16663 34.6767V22.3155C4.16663 17.321 8.22913 13.2422 13.25 13.2422C13.4166 13.2422 13.5833 13.159 13.6458 12.9925L13.7708 12.7428C13.8426 12.5916 13.9163 12.4364 13.9911 12.2788C14.5241 11.1562 15.1138 9.91418 15.4791 9.18424C16.4375 7.31132 18.0625 6.27081 20.0833 6.25H29.8958C31.9166 6.27081 33.5625 7.31132 34.5208 9.18424C34.8489 9.83976 35.3488 10.8957 35.8307 11.9134C35.9301 12.1234 36.0287 12.3318 36.125 12.5347L36.3333 12.9925ZM34.8125 20.9836C34.8125 22.0241 35.6458 22.8566 36.6875 22.8566C37.7291 22.8566 38.5833 22.0241 38.5833 20.9836C38.5833 19.9431 37.7291 19.0899 36.6875 19.0899C35.6458 19.0899 34.8125 19.9431 34.8125 20.9836ZM21.3958 24.2092C22.375 23.2311 23.6458 22.7109 25 22.7109C26.3541 22.7109 27.625 23.2311 28.5833 24.1884C29.5416 25.1457 30.0625 26.4151 30.0625 27.7678C30.0416 30.5563 27.7916 32.8246 25 32.8246C23.6458 32.8246 22.375 32.3044 21.4166 31.3471C20.4583 30.3898 19.9375 29.1204 19.9375 27.7678V27.7469C19.9166 26.4359 20.4375 25.1665 21.3958 24.2092ZM30.7708 33.553C29.2916 35.0305 27.25 35.9462 25 35.9462C22.8125 35.9462 20.7708 35.093 19.2083 33.553C17.6666 31.9922 16.8125 29.9528 16.8125 27.7678C16.7916 25.6035 17.6458 23.5641 19.1875 22.0033C20.75 20.4426 22.8125 19.5893 25 19.5893C27.1875 19.5893 29.25 20.4426 30.7916 21.9825C32.3333 23.5433 33.1875 25.6035 33.1875 27.7678C33.1666 30.0361 32.25 32.0755 30.7708 33.553Z" fill="#3E5481"/>
</svg>
